<svg width="512" height="512" viewBox="0 0 512 512" fill="none" xmlns="http://www.w3.org/2000/svg">
<g clip-path="url(#clip0_1_2)">
<circle cx="256" cy="256" r="251" fill="#042F2E" stroke="#020617" stroke-width="10"/>
<path d="M101.9 200V96.05H164.6V108.5H116.45V139.85H159.2V152.15H116.45V200H101.9ZM248.366 161C248.366 167.2 247.466 172.8 245.666 177.8C243.866 182.8 241.316 187.1 238.016 190.7C234.816 194.3 230.966 197.1 226.466 199.1C221.966 201 217.066 201.95 211.766 201.95C206.466 201.95 201.566 201 197.066 199.1C192.566 197.1 188.666 194.3 185.366 190.7C182.166 187.1 179.666 182.8 177.866 177.8C176.066 172.8 175.166 167.2 175.166 161C175.166 154.9 176.066 149.35 177.866 144.35C179.666 139.25 182.166 134.9 185.366 131.3C188.666 127.7 192.566 124.95 197.066 123.05C201.566 121.05 206.466 120.05 211.766 120.05C217.066 120.05 221.966 121.05 226.466 123.05C230.966 124.95 234.816 127.7 238.016 131.3C241.316 134.9 243.866 139.25 245.666 144.35C247.466 149.35 248.366 154.9 248.366 161ZM233.816 161C233.816 152.2 231.816 145.25 227.816 140.15C223.916 134.95 218.566 132.35 211.766 132.35C204.966 132.35 199.566 134.95 195.566 140.15C191.666 145.25 189.716 152.2 189.716 161C189.716 169.8 191.666 176.8 195.566 182C199.566 187.1 204.966 189.65 211.766 189.65C218.566 189.65 223.916 187.1 227.816 182C231.816 176.8 233.816 169.8 233.816 161ZM296.792 120.35C297.992 120.35 299.342 120.45 300.842 120.65C302.442 120.75 303.992 120.95 305.492 121.25C306.992 121.45 308.342 121.7 309.542 122C310.842 122.2 311.792 122.4 312.392 122.6L309.992 134.75C308.892 134.35 307.042 133.9 304.442 133.4C301.942 132.8 298.692 132.5 294.692 132.5C292.092 132.5 289.492 132.8 286.892 133.4C284.392 133.9 282.742 134.25 281.942 134.45V200H267.992V125.3C271.292 124.1 275.392 123 280.292 122C285.192 120.9 290.692 120.35 296.792 120.35ZM325.854 124.25C329.054 123.45 333.254 122.6 338.454 121.7C343.754 120.8 349.854 120.35 356.754 120.35C361.754 120.35 365.954 121.05 369.354 122.45C372.754 123.75 375.604 125.7 377.904 128.3C378.604 127.8 379.704 127.1 381.204 126.2C382.704 125.3 384.554 124.45 386.754 123.65C388.954 122.75 391.404 122 394.104 121.4C396.804 120.7 399.704 120.35 402.804 120.35C408.804 120.35 413.704 121.25 417.504 123.05C421.304 124.75 424.254 127.2 426.354 130.4C428.554 133.6 430.004 137.4 430.704 141.8C431.504 146.2 431.904 151 431.904 156.2V200H417.954V159.2C417.954 154.6 417.704 150.65 417.204 147.35C416.804 144.05 415.954 141.3 414.654 139.1C413.454 136.9 411.754 135.3 409.554 134.3C407.454 133.2 404.704 132.65 401.304 132.65C396.604 132.65 392.704 133.3 389.604 134.6C386.604 135.8 384.554 136.9 383.454 137.9C384.254 140.5 384.854 143.35 385.254 146.45C385.654 149.55 385.854 152.8 385.854 156.2V200H371.904V159.2C371.904 154.6 371.654 150.65 371.154 147.35C370.654 144.05 369.754 141.3 368.454 139.1C367.254 136.9 365.554 135.3 363.354 134.3C361.254 133.2 358.554 132.65 355.254 132.65C353.854 132.65 352.354 132.7 350.754 132.8C349.154 132.9 347.604 133.05 346.104 133.25C344.704 133.35 343.404 133.5 342.204 133.7C341.004 133.9 340.204 134.05 339.804 134.15V200H325.854V124.25Z" fill="#99F6E4"/>
<path d="M183 369C186.8 360.2 192 350 198.6 338.4C205.2 326.6 212.6 314.5 220.8 302.1C229.2 289.7 238.1 277.5 247.5 265.5C257.1 253.5 266.7 242.7 276.3 233.1H303V365.1H327.6V387.9H303V441H276V387.9H183V369ZM276 266.1C270 272.5 263.9 279.7 257.7 287.7C251.7 295.5 245.8 303.7 240 312.3C234.2 320.9 228.7 329.7 223.5 338.7C218.5 347.7 214 356.5 210 365.1H276V266.1Z" fill="#2DD4BF"/>
</g>
<defs>
<clipPath id="clip0_1_2">
<rect width="512" height="512" fill="white"/>
</clipPath>
</defs>
</svg>
